<svg width="1108" height="308" viewBox="0 0 1108 308" fill="none" xmlns="http://www.w3.org/2000/svg">
<path d="M277.568 268.161L50.2969 306.824C47.3626 307.323 44.347 306.973 41.6048 305.816C38.8626 304.658 36.5079 302.742 34.8176 300.292C33.1273 297.843 32.1718 294.961 32.0635 291.987C31.9551 289.012 32.6984 286.069 34.206 283.502L82.9663 200.598C84.8333 197.422 85.5183 193.689 84.9003 190.057C84.2823 186.425 82.4011 183.129 79.5888 180.749L6.16287 118.633C3.88443 116.71 2.20338 114.176 1.31814 111.33C0.432914 108.483 0.380402 105.443 1.1668 102.567C1.9532 99.6916 3.54569 97.101 5.75638 95.101C7.96706 93.101 10.7037 91.775 13.6434 91.2796L240.962 52.6162C242.984 52.2717 245.055 52.3292 247.056 52.7854C249.056 53.2415 250.947 54.0875 252.62 55.2748C254.293 56.4621 255.716 57.9676 256.807 59.7051C257.899 61.4426 258.637 63.3781 258.979 65.401L290.4 250.131C290.746 252.158 290.688 254.234 290.23 256.238C289.771 258.242 288.921 260.136 287.729 261.812C286.537 263.487 285.025 264.91 283.282 266C281.538 267.089 279.596 267.824 277.568 268.161Z" fill="url(#paint0_linear_311_11987)"/>
<path d="M274.777 251.811L81.7094 284.647C68.6274 286.871 58.7445 271.934 65.3926 259.922L104.639 189.065C106.476 185.679 107.122 181.774 106.476 177.976C105.829 174.179 103.925 170.709 101.071 168.122L40.6437 114.2C30.4159 105.066 34.7805 87.7028 47.8864 85.4669L240.954 52.6311C249.457 51.1801 257.604 57.293 259.114 66.2601L287.466 232.937C288.953 241.916 283.292 250.36 274.777 251.811Z" fill="#E1BBFF"/>
<path d="M286.226 236.869C285.46 239.513 283.973 241.892 281.931 243.738C279.889 245.585 277.374 246.826 274.666 247.323L89.3644 278.839C76.8176 280.991 67.2796 266.339 73.6422 254.625L111.057 185.468C112.809 182.145 113.418 178.336 112.788 174.632C112.158 170.928 110.325 167.535 107.572 164.977L49.369 112.066C39.5337 103.123 43.6605 86.1518 56.2312 84.023L98.9263 76.7565L241.533 52.5309C249.703 51.1633 257.54 57.1335 259.015 65.9222L286.761 228.972C287.21 231.61 287.027 234.316 286.226 236.869Z" fill="#7A43D5"/>
<g opacity="0.25">
<path d="M286.221 236.869C242.44 240.833 198.833 246.661 155.401 254.351C149.568 255.362 143.571 254.042 138.701 250.678C133.83 247.313 130.475 242.171 129.356 236.357C119.199 183.157 109.051 129.957 98.9102 76.7565L241.528 52.5309C249.699 51.1633 257.536 57.1335 259.011 65.9222L286.756 228.972C287.206 231.61 287.022 234.316 286.221 236.869Z" fill="#463180"/>
</g>
<path d="M830.628 268.161L1057.96 306.824C1060.89 307.325 1063.91 306.976 1066.65 305.82C1069.4 304.663 1071.75 302.746 1073.44 300.295C1075.13 297.844 1076.08 294.961 1076.19 291.986C1076.3 289.01 1075.55 286.067 1074.04 283.502L1025.28 200.598C1023.41 197.422 1022.73 193.689 1023.34 190.057C1023.96 186.425 1025.84 183.128 1028.65 180.749L1102.08 118.633C1104.35 116.708 1106.03 114.174 1106.91 111.328C1107.8 108.483 1107.85 105.445 1107.06 102.571C1106.28 99.6978 1104.68 97.1084 1102.48 95.1079C1100.27 93.1075 1097.54 91.7793 1094.6 91.2794L867.329 52.6279C865.307 52.2835 863.236 52.3409 861.236 52.7971C859.235 53.2532 857.344 54.0992 855.671 55.2865C853.998 56.4738 852.575 57.9792 851.484 59.7167C850.393 61.4542 849.654 63.3898 849.312 65.4127L817.891 250.143C817.194 254.221 818.144 258.409 820.532 261.787C822.92 265.165 826.551 267.457 830.628 268.161Z" fill="url(#paint1_linear_311_11987)"/>
<path d="M833.407 251.811L1026.47 284.647C1039.56 286.871 1049.45 271.934 1042.8 259.922L1003.56 189.065C1001.72 185.68 1001.07 181.774 1001.71 177.975C1002.36 174.177 1004.27 170.706 1007.12 168.122L1067.54 114.2C1077.78 105.066 1073.4 87.7028 1060.31 85.4669L867.325 52.6311C858.822 51.1801 850.675 57.293 849.153 66.2601L820.812 232.937C819.242 241.916 824.903 250.36 833.407 251.811Z" fill="#E1BBFF"/>
<path d="M821.982 236.869C822.747 239.512 824.232 241.889 826.272 243.736C828.311 245.582 830.824 246.824 833.53 247.323L1018.84 278.839C1031.39 280.991 1040.93 266.339 1034.57 254.625L997.151 185.468C995.397 182.146 994.786 178.338 995.414 174.634C996.042 170.93 997.873 167.536 1000.62 164.977L1058.9 112.066C1068.73 103.123 1064.61 86.1518 1052.02 84.023L1009.33 76.7565L866.663 52.5309C858.505 51.1633 850.667 57.1335 849.181 65.9222L821.447 228.972C820.998 231.61 821.181 234.316 821.982 236.869Z" fill="#7A43D5"/>
<g opacity="0.25">
<path d="M821.982 236.869C865.747 240.833 909.354 246.661 952.803 254.351C958.636 255.362 964.632 254.042 969.503 250.678C974.373 247.313 977.729 242.171 978.848 236.357C989.004 183.157 999.149 129.957 1009.28 76.7565L866.663 52.5309C858.505 51.1633 850.667 57.1335 849.181 65.9222L821.447 228.972C820.998 231.61 821.181 234.316 821.982 236.869Z" fill="#463180"/>
</g>
<path d="M931.179 215.976C681.538 174.09 426.663 174.09 177.023 215.976C163.679 218.212 150.633 206.616 147.85 189.812C141.364 150.471 134.823 110.741 128.227 70.6224C125.349 53.2708 134.625 37.0015 149.003 34.5278C417.106 -11.5093 691.095 -11.5093 959.198 34.5278C973.565 37.0015 982.853 53.2708 979.975 70.6224C973.363 110.749 966.822 150.478 960.352 189.812C957.569 206.616 944.523 218.212 931.179 215.976Z" fill="url(#paint2_linear_311_11987)"/>
<path d="M972.057 67.2085C970.772 74.7802 969.492 82.3361 968.215 89.8761C963.03 120.369 957.877 150.616 952.755 180.618C950.019 196.59 937.223 207.615 924.117 205.486C679.019 165.633 429.092 165.633 183.994 205.486C170.912 207.615 158.092 196.59 155.356 180.618C151.749 159.425 148.133 138.113 144.51 116.682C141.719 100.27 138.917 83.7791 136.102 67.2085C133.283 50.7013 142.381 35.2288 156.486 32.8859C419.723 -10.9151 688.388 -10.9151 951.625 32.8859C965.766 35.2288 974.875 50.7013 972.057 67.2085Z" fill="#E1BBFF"/>
<path d="M924.164 196.824C678.928 158.661 429.264 158.661 184.029 196.824C170.946 198.858 158.138 188.297 155.403 173.039C149.06 137.194 142.642 100.985 136.148 64.4104C133.33 48.6049 142.44 33.7746 156.544 31.5269C419.922 -10.4308 688.282 -10.4308 951.66 31.5269C965.764 33.7746 974.874 48.6049 972.056 64.4104C965.57 100.985 959.152 137.194 952.801 173.039C950.066 188.297 937.269 198.811 924.164 196.824Z" fill="url(#paint3_linear_311_11987)"/>
<g opacity="0.25">
<path d="M968.213 89.8783C963.028 120.371 957.874 150.619 952.753 180.62C950.017 196.592 937.221 207.617 924.115 205.488C679.017 165.635 429.09 165.635 183.992 205.488C170.91 207.617 158.089 196.592 155.354 180.62C151.747 159.427 148.131 138.115 144.508 116.684C263.662 50.7509 461.022 125.176 691.052 139.352C857.373 149.604 933.367 120.514 968.213 89.8783Z" fill="#4A3180"/>
</g>
<path d="M374.062 74.36C374.382 72.76 374.542 70.16 374.542 66.56C374.542 62.88 373.942 59.52 372.742 56.48C371.542 53.36 369.782 51.8 367.462 51.8C364.662 51.8 361.942 55.44 359.302 62.72C356.662 69.92 355.342 77.68 355.342 86C355.342 94.24 356.142 100.72 357.742 105.44C359.342 110.08 361.702 112.4 364.822 112.4C367.942 112.4 370.302 110.96 371.902 108.08C373.502 105.2 374.702 100.96 375.502 95.36C372.622 95.36 369.542 95.64 366.262 96.2L363.742 84.32C371.022 83.84 380.142 82.96 391.102 81.68C391.582 85.84 391.822 89.64 391.822 93.08C391.822 96.52 390.782 100.8 388.702 105.92C386.702 111.04 383.662 115.56 379.582 119.48C375.582 123.4 371.182 125.36 366.382 125.36C358.062 125.36 351.382 122.12 346.342 115.64C341.382 109.16 338.902 100 338.902 88.16C338.902 79.44 339.982 71.28 342.142 63.68C344.302 56.08 347.502 49.84 351.742 44.96C355.982 40.08 360.822 37.64 366.262 37.64C371.542 37.64 376.502 39.56 381.142 43.4C383.542 45.4 385.462 48.28 386.902 52.04C388.422 55.72 389.182 59.6 389.182 63.68C389.182 67.76 388.822 71.72 388.102 75.56L374.062 74.36ZM399.387 86.6C400.587 80.36 402.867 75.08 406.227 70.76C409.587 66.36 413.987 64.16 419.427 64.16C424.867 64.16 428.867 66.44 431.427 71C434.067 75.48 435.387 81.88 435.387 90.2C435.387 98.52 434.907 110 433.947 124.64L423.867 123.8L422.907 119.96C419.147 122.12 415.307 123.2 411.387 123.2C407.467 123.2 404.227 121.92 401.667 119.36C399.107 116.72 397.827 112.96 397.827 108.08C397.827 103.2 400.227 99 405.027 95.48C409.907 91.96 415.507 90.12 421.827 89.96V86.72C421.827 80.4 420.307 77.24 417.267 77.24C415.747 77.24 414.347 78.32 413.067 80.48C411.867 82.56 410.987 84.96 410.427 87.68L399.387 86.6ZM410.067 108.8C410.067 111.36 411.587 112.64 414.627 112.64C416.707 112.64 418.907 112.16 421.227 111.2L421.467 101.12C417.707 101.44 414.867 102.4 412.947 104C411.027 105.52 410.067 107.12 410.067 108.8ZM473.145 68.48C478.025 68.48 481.745 70.16 484.305 73.52C488.465 67.44 492.585 64.4 496.665 64.4C507.785 64.4 513.345 72.76 513.345 89.48C513.345 98.92 512.545 110.36 510.945 123.8L497.025 122.6C498.545 107.64 499.305 96.24 499.305 88.4C499.305 80.56 498.025 76.64 495.465 76.64C494.345 76.64 493.025 78.44 491.505 82.04C489.985 85.64 488.985 89.64 488.505 94.04C488.345 104.04 488.025 112.96 487.545 120.8L473.505 119.48C474.145 108.2 474.465 98.92 474.465 91.64C474.465 84.36 473.465 80.72 471.465 80.72C470.185 80.72 468.505 82.96 466.425 87.44C464.425 91.84 462.985 96.48 462.105 101.36C462.185 108.72 462.545 116.32 463.185 124.16L449.145 122.84C448.265 111.56 447.825 101.28 447.825 92C447.825 82.72 448.065 74.04 448.545 65.96L458.505 66.68C458.985 68.84 459.665 72.76 460.545 78.44C464.785 71.8 468.985 68.48 473.145 68.48ZM540.4 113.36C543.44 113.36 546.68 110.44 550.12 104.6L559.24 110C557.72 112.64 556.24 114.88 554.8 116.72C553.44 118.56 551.36 120.32 548.56 122C545.76 123.68 542.64 124.52 539.2 124.52C534.16 124.52 529.92 122.4 526.48 118.16C523.04 113.84 521.32 108.04 521.32 100.76C521.32 92.44 522.8 84.68 525.76 77.48C527.36 73.72 529.64 70.68 532.6 68.36C535.64 65.96 538.72 64.76 541.84 64.76C545.04 64.76 547.6 65.28 549.52 66.32C551.44 67.28 552.96 68.4 554.08 69.68C555.28 70.88 556.32 72.68 557.2 75.08C558.08 77.48 558.68 79.44 559 80.96C559.4 82.48 559.72 84.68 559.96 87.56C560.28 91.4 560.44 94.88 560.44 98C554.04 99.76 545.76 101.36 535.6 102.8C535.84 106 536.4 108.56 537.28 110.48C538.16 112.4 539.2 113.36 540.4 113.36ZM543.04 76.52C541.28 76.52 539.68 78.28 538.24 81.8C536.88 85.32 536.08 89.4 535.84 94.04C540.08 93.16 543.76 92.32 546.88 91.52C546.88 81.52 545.6 76.52 543.04 76.52ZM622.645 126.08C615.045 126.08 608.605 122.68 603.325 115.88C598.125 109 595.525 98.6 595.525 84.68C595.525 70.68 598.365 59.28 604.045 50.48C609.805 41.68 616.565 37.28 624.325 37.28C632.085 37.28 638.525 40.72 643.645 47.6C648.845 54.48 651.445 64.84 651.445 78.68C651.445 92.52 648.565 103.88 642.805 112.76C637.045 121.64 630.325 126.08 622.645 126.08ZM624.445 51.56C620.925 51.56 617.885 54.68 615.325 60.92C612.765 67.08 611.485 74.88 611.485 84.32C611.485 93.68 612.565 100.64 614.725 105.2C616.965 109.68 619.725 111.92 623.005 111.92C626.285 111.92 629.165 108.8 631.645 102.56C634.205 96.32 635.485 88.52 635.485 79.16C635.485 69.72 634.405 62.76 632.245 58.28C630.165 53.8 627.565 51.56 624.445 51.56ZM682.583 123.92L667.223 122.48C661.303 98.64 657.703 79.96 656.423 66.44L670.103 67.64C671.463 82.36 673.343 95.56 675.743 107.24C679.023 95.24 682.503 80.16 686.183 62L699.143 63.08C694.583 84.12 689.063 104.4 682.583 123.92ZM720.049 113.36C723.089 113.36 726.329 110.44 729.769 104.6L738.889 110C737.369 112.64 735.889 114.88 734.449 116.72C733.089 118.56 731.009 120.32 728.209 122C725.409 123.68 722.289 124.52 718.849 124.52C713.809 124.52 709.569 122.4 706.129 118.16C702.689 113.84 700.969 108.04 700.969 100.76C700.969 92.44 702.449 84.68 705.409 77.48C707.009 73.72 709.289 70.68 712.249 68.36C715.289 65.96 718.369 64.76 721.489 64.76C724.689 64.76 727.249 65.28 729.169 66.32C731.089 67.28 732.609 68.4 733.729 69.68C734.929 70.88 735.969 72.68 736.849 75.08C737.729 77.48 738.329 79.44 738.649 80.96C739.049 82.48 739.369 84.68 739.609 87.56C739.929 91.4 740.089 94.88 740.089 98C733.689 99.76 725.409 101.36 715.249 102.8C715.489 106 716.049 108.56 716.929 110.48C717.809 112.4 718.849 113.36 720.049 113.36ZM722.689 76.52C720.929 76.52 719.329 78.28 717.889 81.8C716.529 85.32 715.729 89.4 715.489 94.04C719.729 93.16 723.409 92.32 726.529 91.52C726.529 81.52 725.249 76.52 722.689 76.52ZM770.711 78.68C767.351 78.68 764.831 82.92 763.151 91.4C763.311 97 763.391 102.36 763.391 107.48C763.391 112.6 763.231 118.36 762.911 124.76L748.991 123.56C749.231 111.8 749.351 105.32 749.351 104.12C749.351 89.32 748.631 78 747.191 70.16L756.191 71.12C756.751 73.44 757.391 75.48 758.111 77.24C762.031 68.84 765.991 64.64 769.991 64.64C773.271 64.64 776.151 66.08 778.631 68.96L775.511 80C774.231 79.12 772.631 78.68 770.711 78.68Z" fill="white"/>
<defs>
<linearGradient id="paint0_linear_311_11987" x1="85.9752" y1="98.6531" x2="145.284" y2="179.322" gradientUnits="userSpaceOnUse">
<stop stop-color="#313480"/>
<stop offset="0.35" stop-color="#412367"/>
<stop offset="0.75" stop-color="#371651"/>
<stop offset="1" stop-color="#2A1249"/>
</linearGradient>
<linearGradient id="paint1_linear_311_11987" x1="1022.23" y1="98.653" x2="962.923" y2="179.322" gradientUnits="userSpaceOnUse">
<stop stop-color="#4F3180"/>
<stop offset="0.35" stop-color="#352367"/>
<stop offset="0.75" stop-color="#291651"/>
<stop offset="1" stop-color="#311249"/>
</linearGradient>
<linearGradient id="paint2_linear_311_11987" x1="554.095" y1="-107.746" x2="554.095" y2="208.043" gradientUnits="userSpaceOnUse">
<stop stop-color="#543180"/>
<stop offset="0.35" stop-color="#392367"/>
<stop offset="0.75" stop-color="#2C1651"/>
<stop offset="1" stop-color="#2A1249"/>
</linearGradient>
<linearGradient id="paint3_linear_311_11987" x1="554.096" y1="206.838" x2="554.096" y2="-115.682" gradientUnits="userSpaceOnUse">
<stop stop-color="#7243D5"/>
<stop offset="0.03" stop-color="#6548D7"/>
<stop offset="0.35" stop-color="#7B79E8"/>
<stop offset="0.63" stop-color="#A99DF5"/>
<stop offset="0.85" stop-color="#B3BAFC"/>
<stop offset="1" stop-color="#BBC2FF"/>
</linearGradient>
</defs>
</svg>
